<?xml version="1.0" encoding="utf-8"?>
<svg version="1.1" xmlns:xlink="http://www.w3.org/1999/xlink" width="48px" height="40px" xmlns="http://www.w3.org/2000/svg">
  <g transform="matrix(1 0 0 1 -105 -356 )">
    <path d="M 105 356  L 153 356  L 153 396  L 105 396  L 105 356  " fill-rule="nonzero" fill="#cccccc" stroke="none" />
    <path d="M 108 359  L 150 359  L 150 393  L 108 393  L 108 359  " fill-rule="nonzero" fill="#ffffff" stroke="none" />
    <path d="M 132.96 368  C 131.28 368  129.96 366.68  129.96 365  C 129.96 363.32  131.28 362  132.96 362  C 134.64 362  135.96 363.32  135.96 365  C 135.96 366.68  134.64 368  132.96 368  " fill-rule="nonzero" fill="#cccccc" stroke="none" />
    <path d="M 109 392  L 109 374.4  L 119 366.4  L 133 376  L 141 371.2  L 149 376  L 149 392  L 109 392  " fill-rule="nonzero" fill="#169bd5" stroke="none" />
  </g>
</svg>