<?xml version="1.0" encoding="utf-8"?>
<svg version="1.1" xmlns:xlink="http://www.w3.org/1999/xlink" width="26px" height="26px" xmlns="http://www.w3.org/2000/svg">
  <g transform="matrix(1 0 0 1 -313 -89 )">
    <path d="M 326 89  C 333.28 89  339 94.72  339 102  C 339 109.28  333.28 115  326 115  C 318.72 115  313 109.28  313 102  C 313 94.72  318.72 89  326 89  Z " fill-rule="nonzero" fill="#ffffff" stroke="none" />
    <path d="M 326 89.5  C 333 89.5  338.5 95  338.5 102  C 338.5 109  333 114.5  326 114.5  C 319 114.5  313.5 109  313.5 102  C 313.5 95  319 89.5  326 89.5  Z " stroke-width="1" stroke="#797979" fill="none" />
  </g>
</svg>