<?xml version="1.0" encoding="utf-8"?>
<svg version="1.1" xmlns:xlink="http://www.w3.org/1999/xlink" width="15px" height="35px" xmlns="http://www.w3.org/2000/svg">
  <g transform="matrix(1 0 0 1 -88 -80 )">
    <path d="M 14.7422680412371 2.10420841683367  C 14.914089347079 2.33800935203737  15 2.60688042752173  15 2.91082164328657  C 15 3.21476285905146  14.914089347079 3.48363393453576  14.7422680412371 3.71743486973946  L 4.61340206185568 17.5  L 14.7422680412371 31.2825651302605  C 14.914089347079 31.5163660654642  15 31.7852371409485  15 32.0891783567134  C 15 32.3931195724783  14.914089347079 32.6619906479626  14.7422680412371 32.8957915831663  L 13.4536082474227 34.6492985971944  C 13.2817869415807 34.8830995323981  13.0841924398625 35  12.8608247422681 35  C 12.6374570446735 35  12.4398625429553 34.8830995323981  12.2680412371134 34.6492985971944  L 0.257731958762889 18.3066132264529  C 0.0859106529209583 18.0728122912491  0 17.8039412157648  0 17.5  C 0 17.1960587842352  0.0859106529209583 16.9271877087509  0.257731958762889 16.6933867735471  L 12.2680412371134 0.350701402805612  C 12.4398625429553 0.116900467601909  12.6374570446735 0  12.8608247422681 0  C 13.0841924398625 0  13.2817869415807 0.116900467601909  13.4536082474227 0.350701402805612  L 14.7422680412371 2.10420841683367  Z " fill-rule="nonzero" fill="#333333" stroke="none" transform="matrix(1 0 0 1 88 80 )" />
  </g>
</svg>