<?xml version="1.0" encoding="utf-8"?>
<svg version="1.1" xmlns:xlink="http://www.w3.org/1999/xlink" width="32px" height="36px" xmlns="http://www.w3.org/2000/svg">
  <g transform="matrix(1 0 0 1 -325 -279 )">
    <path d="M 8 9  C 8 13.96125  11.58 18  16 18  C 20.42 18  24 13.96125  24 9  C 24 4.02749999999997  20.42 0  16 0  C 11.58 0  8 4.02749999999997  8 9  Z M 32 31.5  C 32 25.50375  21.33 22.5  16 22.5  C 10.67 22.5  0 25.50375  0 31.5  L 0 36  L 32 36  L 32 31.5  Z " fill-rule="nonzero" fill="#000000" stroke="none" transform="matrix(1 0 0 1 325 279 )" />
  </g>
</svg>