<?xml version="1.0" encoding="utf-8"?>
<svg version="1.1" xmlns:xlink="http://www.w3.org/1999/xlink" width="106px" height="28px" xmlns="http://www.w3.org/2000/svg">
  <defs>
    <linearGradient gradientUnits="userSpaceOnUse" x1="53" y1="0" x2="53" y2="28" id="LinearGradient37">
      <stop id="Stop38" stop-color="#ffffff" offset="0" />
      <stop id="Stop39" stop-color="#f2f2f2" offset="0" />
      <stop id="Stop40" stop-color="#e4e4e4" offset="1" />
      <stop id="Stop41" stop-color="#ffffff" offset="1" />
    </linearGradient>
    <mask fill="white" id="clip42">
      <path d="M 91.4563106796118 14  C 91.3847016856155 6.25010346300371  105.480582524272 0.114754098360663  105.480582524272 0.114754098360663  L 14.0631067961165 0.114754098360663  C 14.0631067961165 0.114754098360663  -0.0329129507838388 6.25041777812248  0.0388349514562378 14  C 0.109874856089391 21.6731104993858  14.0631067961165 27.655737704918  14.0631067961165 27.655737704918  L 105.480582524272 27.655737704918  C 105.480582524272 27.655737704918  91.5272072762641 21.6727972035249  91.4563106796118 14  Z " fill-rule="evenodd" />
    </mask>
  </defs>
  <g transform="matrix(1 0 0 1 -297 -1940 )">
    <path d="M 91.4563106796118 14  C 91.3847016856155 6.25010346300371  105.480582524272 0.114754098360663  105.480582524272 0.114754098360663  L 14.0631067961165 0.114754098360663  C 14.0631067961165 0.114754098360663  -0.0329129507838388 6.25041777812248  0.0388349514562378 14  C 0.109874856089391 21.6731104993858  14.0631067961165 27.655737704918  14.0631067961165 27.655737704918  L 105.480582524272 27.655737704918  C 105.480582524272 27.655737704918  91.5272072762641 21.6727972035249  91.4563106796118 14  Z " fill-rule="nonzero" fill="url(#LinearGradient37)" stroke="none" transform="matrix(1 0 0 1 297 1940 )" />
    <path d="M 91.4563106796118 14  C 91.3847016856155 6.25010346300371  105.480582524272 0.114754098360663  105.480582524272 0.114754098360663  L 14.0631067961165 0.114754098360663  C 14.0631067961165 0.114754098360663  -0.0329129507838388 6.25041777812248  0.0388349514562378 14  C 0.109874856089391 21.6731104993858  14.0631067961165 27.655737704918  14.0631067961165 27.655737704918  L 105.480582524272 27.655737704918  C 105.480582524272 27.655737704918  91.5272072762641 21.6727972035249  91.4563106796118 14  Z " stroke-width="2" stroke="#797979" fill="none" transform="matrix(1 0 0 1 297 1940 )" mask="url(#clip42)" />
  </g>
</svg>