<?xml version="1.0" encoding="utf-8"?>
<svg version="1.1" xmlns:xlink="http://www.w3.org/1999/xlink" width="20px" height="20px" xmlns="http://www.w3.org/2000/svg">
  <g transform="matrix(1 0 0 1 -1628 -258 )">
    <path d="M 1638 258  C 1643.6 258  1648 262.4  1648 268  C 1648 273.6  1643.6 278  1638 278  C 1632.4 278  1628 273.6  1628 268  C 1628 262.4  1632.4 258  1638 258  Z " fill-rule="nonzero" fill="#ffffff" stroke="none" />
    <path d="M 1638 258.5  C 1643.32 258.5  1647.5 262.68  1647.5 268  C 1647.5 273.32  1643.32 277.5  1638 277.5  C 1632.68 277.5  1628.5 273.32  1628.5 268  C 1628.5 262.68  1632.68 258.5  1638 258.5  Z " stroke-width="1" stroke="#797979" fill="none" />
  </g>
</svg>