<?xml version="1.0" encoding="utf-8"?>
<svg version="1.1" xmlns:xlink="http://www.w3.org/1999/xlink" width="12px" height="12px" viewBox="717 944  12 12" xmlns="http://www.w3.org/2000/svg">
  <path d="M 723 944  C 726.36 944  729 946.64  729 950  C 729 953.36  726.36 956  723 956  C 719.64 956  717 953.36  717 950  C 717 946.64  719.64 944  723 944  Z " fill-rule="nonzero" fill="#ffffff" stroke="none" />
  <path d="M 723 944.5  C 726.08 944.5  728.5 946.92  728.5 950  C 728.5 953.08  726.08 955.5  723 955.5  C 719.92 955.5  717.5 953.08  717.5 950  C 717.5 946.92  719.92 944.5  723 944.5  Z " stroke-width="1" stroke="#797979" fill="none" />
  <path d="M 723 953  C 721.32 953  720 951.68  720 950  C 720 948.32  721.32 947  723 947  C 724.68 947  726 948.32  726 950  C 726 951.68  724.68 953  723 953  " fill-rule="nonzero" fill="#797979" stroke="none" />
</svg>