<?xml version="1.0" encoding="utf-8"?>
<svg version="1.1" xmlns:xlink="http://www.w3.org/1999/xlink" width="40px" height="40px" xmlns="http://www.w3.org/2000/svg">
  <g transform="matrix(1 0 0 1 -968 -121 )">
    <path d="M 12.2321428571427 1.58482142857143  C 14.7023809523807 0.52827380952381  17.2916666666665 0  20 0  C 22.7083333333335 0  25.2976190476193 0.52827380952381  27.7678571428573 1.58482142857143  C 30.2380952380954 2.64136904761905  32.3660714285716 4.0625  34.1517857142858 5.84821428571429  C 35.9375 7.63392857142858  37.3586309523807 9.76190476190474  38.4151785714284 12.2321428571428  C 39.4717261904761 14.7023809523809  40 17.2916666666667  40 20  C 40 22.6934523809524  39.4754464285716 25.2752976190476  38.4263392857142 27.7455357142857  C 37.3772321428573 30.2157738095238  35.9598214285716 32.34375  34.1741071428573 34.1294642857143  C 32.3883928571427 35.9151785714286  30.2604166666665 37.3400297619048  27.7901785714284 38.4040178571428  C 25.3199404761904 39.468005952381  22.7232142857142 40  20 40  C 17.2767857142858 40  14.6800595238096 39.4717261904762  12.2098214285716 38.4151785714286  C 9.73958333333348 37.358630952381  7.61532738095229 35.9337797619048  5.83705357142844 34.140625  C 4.05877976190459 32.3474702380952  2.64136904761926 30.219494047619  1.58482142857156 27.7566964285714  C 0.528273809523853 25.2938988095238  0 22.7083333333333  0 20  C 0 17.2916666666667  0.528273809523853 14.7023809523809  1.58482142857156 12.2321428571428  C 2.64136904761926 9.76190476190474  4.0625 7.63392857142858  5.84821428571422 5.84821428571429  C 7.63392857142844 4.0625  9.76190476190459 2.64136904761905  12.2321428571427 1.58482142857143  Z M 26.9866071428573 22.8571428571428  C 30.5580357142858 22.8571428571428  32.8348214285716 25.2901785714286  33.8169642857142 30.15625  C 36.0342261904761 27.1056547619048  37.1428571428573 23.7202380952381  37.1428571428573 20  C 37.1428571428573 17.6785714285714  36.6889880952381 15.4613095238095  35.78125 13.3482142857143  C 34.8735119047619 11.235119047619  33.6532738095239 9.41220238095238  32.1205357142858 7.87946428571429  C 30.5877976190477 6.34672619047619  28.7648809523807 5.1264880952381  26.6517857142858 4.21875  C 24.5386904761904 3.3110119047619  22.3214285714284 2.85714285714286  20 2.85714285714286  C 17.6785714285716 2.85714285714286  15.4613095238096 3.3110119047619  13.3482142857142 4.21875  C 11.2351190476193 5.1264880952381  9.41220238095229 6.34672619047619  7.87946428571422 7.87946428571429  C 6.34672619047615 9.41220238095238  5.12648809523807 11.235119047619  4.21875 13.3482142857143  C 3.31101190476193 15.4613095238095  2.85714285714266 17.6785714285714  2.85714285714266 20  C 2.85714285714266 23.7202380952381  3.96577380952385 27.1056547619048  6.18303571428578 30.15625  C 7.16517857142844 25.2901785714286  9.44196428571422 22.8571428571428  13.0133928571427 22.8571428571428  C 14.9627976190477 24.7619047619048  17.2916666666665 25.7142857142857  20 25.7142857142857  C 22.7083333333335 25.7142857142857  25.0372023809523 24.7619047619048  26.9866071428573 22.8571428571428  Z M 26.0602678571427 21.7745535714286  C 27.734375 20.1004464285714  28.5714285714284 18.0803571428572  28.5714285714284 15.7142857142857  C 28.5714285714284 13.3482142857143  27.734375 11.328125  26.0602678571427 9.65401785714285  C 24.3861607142858 7.97991071428571  22.3660714285716 7.14285714285714  20 7.14285714285714  C 17.6339285714284 7.14285714285714  15.6138392857142 7.97991071428571  13.9397321428573 9.65401785714285  C 12.265625 11.328125  11.4285714285716 13.3482142857143  11.4285714285716 15.7142857142857  C 11.4285714285716 18.0803571428572  12.265625 20.1004464285714  13.9397321428573 21.7745535714286  C 15.6138392857142 23.4486607142857  17.6339285714284 24.2857142857143  20 24.2857142857143  C 22.3660714285716 24.2857142857143  24.3861607142858 23.4486607142857  26.0602678571427 21.7745535714286  Z " fill-rule="nonzero" fill="#000000" stroke="none" transform="matrix(1 0 0 1 968 121 )" />
  </g>
</svg>