<?xml version="1.0" encoding="utf-8"?>
<svg version="1.1" xmlns:xlink="http://www.w3.org/1999/xlink" width="25px" height="25px" xmlns="http://www.w3.org/2000/svg">
  <g transform="matrix(1 0 0 1 -498 -218 )">
    <path d="M 510.5 218  C 517.5 218  523 223.5  523 230.5  C 523 237.5  517.5 243  510.5 243  C 503.5 243  498 237.5  498 230.5  C 498 223.5  503.5 218  510.5 218  Z " fill-rule="nonzero" fill="#ffffff" stroke="none" />
    <path d="M 510.5 218.5  C 517.22 218.5  522.5 223.78  522.5 230.5  C 522.5 237.22  517.22 242.5  510.5 242.5  C 503.78 242.5  498.5 237.22  498.5 230.5  C 498.5 223.78  503.78 218.5  510.5 218.5  Z " stroke-width="1" stroke="#797979" fill="none" />
  </g>
</svg>