<?xml version="1.0" encoding="utf-8"?>
<svg version="1.1" xmlns:xlink="http://www.w3.org/1999/xlink" width="20px" height="20px" xmlns="http://www.w3.org/2000/svg">
  <g transform="matrix(1 0 0 1 -309 -47 )">
    <path d="M 10 19.1071428571429  C 10.1282051282051 19.1071428571429  10.1923076923077 19.0476190476191  10.1923076923077 18.9285714285714  C 10.1923076923077 18.8095238095238  10.1282051282051 18.75  10 18.75  C 9.52724358974359 18.75  9.12059294871796 18.5918898809524  8.78004807692309 18.2756696428571  C 8.43950320512823 17.9594494047619  8.26923076923077 17.5818452380952  8.26923076923077 17.1428571428571  C 8.26923076923077 17.0238095238095  8.20512820512823 16.9642857142857  8.07692307692309 16.9642857142857  C 7.94871794871796 16.9642857142857  7.88461538461536 17.0238095238095  7.88461538461536 17.1428571428571  C 7.88461538461536 17.6860119047619  8.0909455128205 18.1491815476191  8.50360576923077 18.5323660714286  C 8.91626602564105 18.9155505952381  9.41506410256409 19.1071428571429  10 19.1071428571429  Z M 5.38461538461536 6.42857142857143  C 5.38461538461536 10.3869047619048  4.31891025641028 13.4821428571429  2.1875 15.7142857142857  L 17.8125 15.7142857142857  C 15.6810897435897 13.4821428571429  14.6153846153846 10.3869047619048  14.6153846153846 6.42857142857143  C 14.6153846153846 6.04910714285714  14.5192307692308 5.65848214285714  14.3269230769231 5.25669642857143  C 14.1346153846154 4.85491071428572  13.8581730769231 4.47172619047619  13.4975961538461 4.10714285714286  C 13.1370192307692 3.74255952380953  12.6502403846154 3.44308035714286  12.0372596153846 3.20870535714286  C 11.4242788461539 2.97433035714286  10.7451923076923 2.85714285714286  10 2.85714285714286  C 9.25480769230768 2.85714285714286  8.57572115384613 2.97433035714286  7.96274038461536 3.20870535714286  C 7.34975961538464 3.44308035714286  6.86298076923077 3.74255952380953  6.50240384615387 4.10714285714286  C 6.14182692307691 4.47172619047619  5.86538461538464 4.85491071428572  5.67307692307691 5.25669642857143  C 5.48076923076923 5.65848214285714  5.38461538461536 6.04910714285714  5.38461538461536 6.42857142857143  Z M 18.90625 14.7321428571429  C 19.2347756410256 15.0744047619048  19.5993589743589 15.4017857142857  20 15.7142857142857  C 20 16.1011904761905  19.8477564102564 16.4360119047619  19.5432692307692 16.71875  C 19.238782051282 17.0014880952381  18.8782051282051 17.1428571428571  18.4615384615385 17.1428571428571  L 13.0769230769231 17.1428571428571  C 13.0769230769231 17.9315476190476  12.7764423076923 18.6049107142857  12.1754807692308 19.1629464285714  C 11.5745192307692 19.7209821428571  10.8493589743589 20  10 20  C 9.15064102564105 20  8.42548076923077 19.7209821428571  7.82451923076923 19.1629464285714  C 7.22355769230768 18.6049107142857  6.92307692307691 17.9315476190476  6.92307692307691 17.1428571428571  L 1.53846153846155 17.1428571428571  C 1.12179487179486 17.1428571428571  0.761217948717956 17.0014880952381  0.456730769230774 16.71875  C 0.152243589743591 16.4360119047619  0 16.1011904761905  0 15.7142857142857  C 0.40064102564105 15.4017857142857  0.765224358974365 15.0744047619048  1.09375 14.7321428571429  C 1.42227564102564 14.3898809523809  1.7628205128205 13.9453125  2.11538461538464 13.3984375  C 2.46794871794873 12.8515625  2.76642628205127 12.2619047619048  3.01081730769232 11.6294642857143  C 3.25520833333331 10.9970238095238  3.45552884615387 10.2306547619048  3.61177884615387 9.33035714285714  C 3.76802884615387 8.43005952380953  3.84615384615387 7.46279761904761  3.84615384615387 6.42857142857143  C 3.84615384615387 5.29761904761905  4.31490384615387 4.24665178571428  5.25240384615387 3.27566964285714  C 6.18990384615387 2.3046875  7.41987179487182 1.71502976190476  8.94230769230768 1.50669642857143  C 8.87820512820514 1.36532738095238  8.84615384615387 1.22023809523809  8.84615384615387 1.07142857142857  C 8.84615384615387 0.773809523809526  8.95833333333331 0.520833333333329  9.18269230769232 0.3125  C 9.40705128205127 0.104166666666671  9.67948717948718 0  10 0  C 10.3205128205128 0  10.5929487179487 0.104166666666671  10.8173076923077 0.3125  C 11.0416666666667 0.520833333333329  11.1538461538461 0.773809523809526  11.1538461538461 1.07142857142857  C 11.1538461538461 1.22023809523809  11.1217948717949 1.36532738095238  11.0576923076923 1.50669642857143  C 12.5801282051282 1.71502976190476  13.8100961538461 2.3046875  14.7475961538461 3.27566964285714  C 15.6850961538461 4.24665178571428  16.1538461538461 5.29761904761905  16.1538461538461 6.42857142857143  C 16.1538461538461 7.46279761904761  16.2319711538461 8.43005952380953  16.3882211538461 9.33035714285714  C 16.5444711538461 10.2306547619048  16.7447916666667 10.9970238095238  16.9891826923077 11.6294642857143  C 17.2335737179487 12.2619047619048  17.5320512820513 12.8515625  17.8846153846154 13.3984375  C 18.2371794871795 13.9453125  18.5777243589744 14.3898809523809  18.90625 14.7321428571429  Z " fill-rule="nonzero" fill="#000000" stroke="none" transform="matrix(1 0 0 1 309 47 )" />
  </g>
</svg>