<?xml version="1.0" standalone="no"?><!DOCTYPE svg PUBLIC "-//W3C//DTD SVG 1.1//EN" "http://www.w3.org/Graphics/SVG/1.1/DTD/svg11.dtd"><svg class="icon" width="200px" height="200.00px" viewBox="0 0 1024 1024" version="1.1" xmlns="http://www.w3.org/2000/svg"><path d="M512 1024c-281.6 0-512-230.4-512-512s230.4-512 512-512 512 230.4 512 512c0 19.2-12.8 32-32 32S960 531.2 960 512c0-249.6-198.4-448-448-448S64 262.4 64 512s198.4 448 448 448c19.2 0 32 12.8 32 32S531.2 1024 512 1024z"  /><path d="M992 800l-448 0C524.8 800 512 787.2 512 768s12.8-32 32-32l448 0c19.2 0 32 12.8 32 32S1011.2 800 992 800z"  /><path d="M768 1024c-19.2 0-32-12.8-32-32l0-448C736 524.8 748.8 512 768 512s32 12.8 32 32l0 448C800 1011.2 787.2 1024 768 1024z"  /><path d="M454.4 710.4c-6.4 0-19.2 0-25.6-6.4L262.4 537.6C256 531.2 256 518.4 256 512S256 492.8 262.4 486.4l224-224c12.8-12.8 32-12.8 44.8 0l166.4 166.4c12.8 12.8 12.8 32 0 44.8s-32 12.8-44.8 0L512 332.8 332.8 512l140.8 140.8c12.8 12.8 12.8 32 0 44.8C467.2 710.4 460.8 710.4 454.4 710.4z"  /></svg>