<?xml version="1.0" standalone="no"?><!DOCTYPE svg PUBLIC "-//W3C//DTD SVG 1.1//EN" "http://www.w3.org/Graphics/SVG/1.1/DTD/svg11.dtd"><svg class="icon" width="200px" height="200.00px" viewBox="0 0 1024 1024" version="1.1" xmlns="http://www.w3.org/2000/svg"><path d="M483.556 967.111c-227.556 0-409.6-176.355-426.667-398.222H0v341.333h56.889V768c79.644 153.6 238.933 256 426.667 256 261.688 0 466.488-199.111 483.555-455.111h-56.889C893.156 790.756 711.112 967.11 483.556 967.11z" fill="#2c2c2c" /><path d="M654.222 273.067L483.556 443.733 312.889 273.067l-39.822 39.822L415.289 455.11H284.444V512h170.667v113.778H284.444v56.889h170.667v170.666H512V682.667h170.667v-56.89H512V512h170.667v-56.889H551.822L694.044 312.89z" fill="#2c2c2c" /><path d="M910.222 170.667v142.222c-79.644-153.6-244.622-256-426.666-256C227.556 56.889 17.066 256 0 512h56.889C73.956 290.133 256 113.778 483.556 113.778S893.156 290.133 910.222 512h56.89V170.667h-56.89z" fill="#2c2c2c" /></svg>