<?xml version="1.0" standalone="no"?><!DOCTYPE svg PUBLIC "-//W3C//DTD SVG 1.1//EN" "http://www.w3.org/Graphics/SVG/1.1/DTD/svg11.dtd"><svg class="icon" width="200px" height="200.00px" viewBox="0 0 1024 1024" version="1.1" xmlns="http://www.w3.org/2000/svg"><path d="M199.04 369.92h170.88a83.84 83.84 0 0 0 85.12-85.12V113.92A83.84 83.84 0 0 0 369.92 28.8H199.04a83.84 83.84 0 0 0-85.12 85.12V284.8a85.76 85.76 0 0 0 85.12 85.12z m-28.16-256a26.88 26.88 0 0 1 28.16-28.16h170.88a26.88 26.88 0 0 1 28.16 28.16V284.8a26.88 26.88 0 0 1-28.16 28.16H199.04a26.88 26.88 0 0 1-28.16-28.16zM841.6 654.08H640a69.12 69.12 0 0 0-68.48 68.48v204.8A69.12 69.12 0 0 0 640 995.2h204.8a69.12 69.12 0 0 0 68.48-68.48v-204.8a69.12 69.12 0 0 0-68.48-68.48z m8.32-181.76h-39.68l71.04 122.24 71.04-122.24h-45.44a398.08 398.08 0 0 0-394.88-358.4v56.96a343.68 343.68 0 0 1 338.56 301.44z m-676.48 82.56h39.68l-70.4-122.24-71.04 122.24h45.44a397.44 397.44 0 0 0 394.88 355.2v-56.96a341.12 341.12 0 0 1-338.56-298.24z m0 0" fill="#2c2c2c" /></svg>