<?xml version="1.0" standalone="no"?><!DOCTYPE svg PUBLIC "-//W3C//DTD SVG 1.1//EN" "http://www.w3.org/Graphics/SVG/1.1/DTD/svg11.dtd"><svg class="icon" width="200px" height="200.00px" viewBox="0 0 1024 1024" version="1.1" xmlns="http://www.w3.org/2000/svg"><path d="M138.398529 847.886658a26.833954 26.833954 0 0 1-20.8226-9.839878 507.98229 507.98229 0 0 1-42.536617-59.690691 27.051094 27.051094 0 0 1 46.205143-28.136795 448.57731 448.57731 0 0 0 38.090958 53.405054 27.176807 27.176807 0 0 1-3.542814 38.090958 28.159652 28.159652 0 0 1-17.39407 6.171352z m0 0" fill="#2c2c2c" /><path d="M511.959623 1023.998766a508.622282 508.622282 0 0 1-295.070636-93.541701A27.00538 27.00538 0 1 1 247.997173 886.30904a455.308655 455.308655 0 0 0 263.996736 83.598966c252.568305 0 458.085764-205.50603 458.085763-458.017193S764.505072 53.87362 511.959623 53.87362 53.988144 259.505362 53.988144 512.005097a455.880077 455.880077 0 0 0 18.422629 128.77555 27.056808 27.056808 0 0 1-51.930786 15.211241A512.987942 512.987942 0 0 1 0.00024 511.993669c0-282.350794 229.711445-511.993669 512.073668-511.993669s512.062239 229.642875 512.062239 511.993669-229.780016 511.993669-512.176524 511.993668z m0 0" fill="#2c2c2c" /><path d="M728.814085 410.474924L511.342488 627.923664a26.662527 26.662527 0 0 1-29.451064 5.885641 28.251079 28.251079 0 0 1-9.062745-5.885641L350.9559 506.039457a27.233949 27.233949 0 1 1 38.502381-38.479525l102.855871 102.855871 198.44326-198.44326c10.422728-10.422728 27.633944-10.422728 38.51381 0a27.211092 27.211092 0 0 1-0.457137 38.502381z m0 0" fill="#2c2c2c" /></svg>