<?xml version="1.0" encoding="utf-8"?>
<svg version="1.1" xmlns:xlink="http://www.w3.org/1999/xlink" width="22px" height="23px" xmlns="http://www.w3.org/2000/svg">
  <g transform="matrix(1 0 0 1 -109 -75 )">
    <path d="M 17.3461538461539 12.0775669642857  C 17.3461538461539 12.1888020833333  17.3064903846154 12.2872023809524  17.2271634615385 12.3727678571428  L 10.4579326923077 18.9441964285714  C 10.3697916666667 19.0212053571429  10.2684294871795 19.0597098214286  10.1538461538461 19.0597098214286  C 10.0392628205128 19.0597098214286  9.93790064102564 19.0212053571429  9.84975961538461 18.9441964285714  L 6.04206730769232 15.2477678571428  C 5.96274038461539 15.1622023809524  5.92307692307693 15.0638020833333  5.92307692307693 14.9525669642857  C 5.92307692307693 14.8413318452381  5.96274038461539 14.7472098214286  6.04206730769232 14.6702008928572  L 6.65024038461539 14.0797991071428  C 6.72956730769232 14.0027901785714  6.82652243589746 13.9642857142857  6.94110576923077 13.9642857142857  C 7.05568910256412 13.9642857142857  7.15705128205127 14.0027901785714  7.24519230769232 14.0797991071428  L 10.1538461538461 16.9034598214286  L 16.0240384615385 11.2047991071429  C 16.1121794871795 11.1277901785714  16.2135416666667 11.0892857142857  16.328125 11.0892857142857  C 16.4427083333333 11.0892857142857  16.5396634615385 11.1277901785714  16.6189903846154 11.2047991071429  L 17.2271634615385 11.7952008928572  C 17.3064903846154 11.8722098214286  17.3461538461539 11.9663318452381  17.3461538461539 12.0775669642857  Z M 2 8.21428571428571  L 2 21  L 20 21  L 20 8.21428571428571  L 2 8.21428571428571  Z M 6.65024038461539 6.04520089285714  C 6.72956730769232 5.96819196428571  6.76923076923077 5.86979166666666  6.76923076923077 5.75  L 6.76923076923077 2.05357142857143  C 6.76923076923077 1.93377976190476  6.72956730769232 1.83537946428571  6.65024038461539 1.75837053571429  C 6.57091346153845 1.68136160714285  6.46955128205127 1.64285714285715  6.34615384615384 1.64285714285715  L 5.5 1.64285714285715  C 5.37660256410254 1.64285714285715  5.27524038461539 1.68136160714285  5.19591346153845 1.75837053571429  C 5.11658653846155 1.83537946428571  5.07692307692307 1.93377976190476  5.07692307692307 2.05357142857143  L 5.07692307692307 5.75  C 5.07692307692307 5.86979166666666  5.11658653846155 5.96819196428571  5.19591346153845 6.04520089285714  C 5.27524038461539 6.12220982142857  5.37660256410254 6.16071428571429  5.5 6.16071428571429  L 6.34615384615384 6.16071428571429  C 6.46955128205127 6.16071428571429  6.57091346153845 6.12220982142857  6.65024038461539 6.04520089285714  Z M 16.8040865384615 6.04520089285714  C 16.8834134615385 5.96819196428571  16.9230769230769 5.86979166666666  16.9230769230769 5.75  L 16.9230769230769 2.05357142857143  C 16.9230769230769 1.93377976190476  16.8834134615385 1.83537946428571  16.8040865384615 1.75837053571429  C 16.7247596153846 1.68136160714285  16.6233974358975 1.64285714285715  16.5 1.64285714285715  L 15.6538461538461 1.64285714285715  C 15.5304487179487 1.64285714285715  15.4290865384615 1.68136160714285  15.3497596153846 1.75837053571429  C 15.2704326923077 1.83537946428571  15.2307692307692 1.93377976190476  15.2307692307692 2.05357142857143  L 15.2307692307692 5.75  C 15.2307692307692 5.86979166666666  15.2704326923077 5.96819196428571  15.3497596153846 6.04520089285714  C 15.4290865384615 6.12220982142857  15.5304487179487 6.16071428571429  15.6538461538461 6.16071428571429  L 16.5 6.16071428571429  C 16.6233974358975 6.16071428571429  16.7247596153846 6.12220982142857  16.8040865384615 6.04520089285714  Z M 21.4975961538461 3.7734375  C 21.832532051282 4.09858630952381  22 4.48363095238095  22 4.92857142857143  L 22 21.3571428571429  C 22 21.8020833333333  21.832532051282 22.1871279761905  21.4975961538461 22.5122767857143  C 21.1626602564102 22.8374255952381  20.7660256410256 23  20.3076923076923 23  L 1.69230769230768 23  C 1.23397435897434 23  0.837339743589752 22.8374255952381  0.50240384615384 22.5122767857143  C 0.167467948717956 22.1871279761905  0 21.8020833333333  0 21.3571428571429  L 0 4.92857142857143  C 0 4.48363095238095  0.167467948717956 4.09858630952381  0.50240384615384 3.7734375  C 0.837339743589752 3.44828869047618  1.23397435897434 3.28571428571429  1.69230769230768 3.28571428571429  L 3.38461538461539 3.28571428571429  L 3.38461538461539 2.05357142857143  C 3.38461538461539 1.48883928571429  3.5917467948718 1.0053943452381  4.00600961538461 0.603236607142847  C 4.42027243589746 0.20107886904762  4.91826923076923 0  5.5 0  L 6.34615384615384 0  C 6.92788461538461 0  7.42588141025641 0.20107886904762  7.84014423076923 0.603236607142847  C 8.25440705128204 1.0053943452381  8.46153846153845 1.48883928571429  8.46153846153845 2.05357142857143  L 8.46153846153845 3.28571428571429  L 13.5384615384615 3.28571428571429  L 13.5384615384615 2.05357142857143  C 13.5384615384615 1.48883928571429  13.745592948718 1.0053943452381  14.1598557692308 0.603236607142847  C 14.5741185897436 0.20107886904762  15.0721153846154 0  15.6538461538461 0  L 16.5 0  C 17.0817307692308 0  17.5797275641025 0.20107886904762  17.9939903846154 0.603236607142847  C 18.4082532051282 1.0053943452381  18.6153846153846 1.48883928571429  18.6153846153846 2.05357142857143  L 18.6153846153846 3.28571428571429  L 20.3076923076923 3.28571428571429  C 20.7660256410256 3.28571428571429  21.1626602564102 3.44828869047618  21.4975961538461 3.7734375  Z " fill-rule="nonzero" fill="#000000" stroke="none" transform="matrix(1 0 0 1 109 75 )" />
  </g>
</svg>